<?xml version="1.0" encoding="UTF-8"?>
<svg xmlns="http://www.w3.org/2000/svg" xmlns:xlink="http://www.w3.org/1999/xlink" width="512px" height="512px" viewBox="0 0 512 512" version="1.1">
<g id="surface1">
<path style=" stroke:none;fill-rule:nonzero;fill:rgb(25.882354%,51.764709%,95.294118%);fill-opacity:1;" d="M 212.414062 25.785156 C 213.132812 27.035156 213.835938 28.316406 214.527344 29.621094 C 214.945312 30.390625 215.367188 31.15625 215.796875 31.949219 C 223.789062 47.433594 227.636719 68.445312 228 90.777344 C 227.761719 114.28125 223.140625 136.136719 214.9375 152.457031 C 211.464844 158.519531 207.523438 163.039062 203.589844 167.667969 C 201.554688 170.0625 199.527344 172.484375 197.503906 174.90625 C 196.363281 176.265625 195.222656 177.621094 194.082031 178.980469 C 190.328125 183.445312 186.585938 187.945312 182.847656 192.460938 C 178.101562 198.199219 173.332031 203.851562 168.554688 209.476562 C 163.890625 214.972656 159.242188 220.527344 154.605469 226.136719 C 150.75 230.796875 146.878906 235.402344 143.007812 240 C 138.640625 245.1875 134.3125 250.457031 130.046875 256 C 138.003906 265.613281 145.980469 275.171875 153.96875 284.675781 C 156.746094 287.984375 159.527344 291.300781 162.304688 294.613281 C 163.414062 295.933594 164.523438 297.257812 165.632812 298.578125 C 167.851562 301.222656 170.070312 303.867188 172.289062 306.511719 C 172.835938 307.167969 173.386719 307.820312 173.953125 308.496094 C 175.0625 309.816406 176.167969 311.140625 177.277344 312.460938 C 180.0625 315.78125 182.847656 319.101562 185.636719 322.417969 C 188.402344 325.710938 191.167969 329.007812 193.933594 332.308594 C 195.046875 333.640625 196.164062 334.96875 197.28125 336.296875 C 198.933594 338.265625 200.585938 340.238281 202.238281 342.214844 C 202.976562 343.089844 202.976562 343.089844 203.730469 343.980469 C 214.300781 356.652344 222.570312 372.113281 226.300781 396.910156 C 228.988281 418.054688 228.207031 440.015625 223.339844 459.625 C 221.144531 467.308594 218.597656 473.957031 215.550781 480.265625 C 215.238281 480.925781 214.925781 481.585938 214.601562 482.265625 C 206.757812 497.605469 196.324219 502.996094 185.804688 502.707031 C 177.738281 502.1875 170.851562 495.347656 163.96875 487.207031 C 163.140625 486.238281 163.140625 486.238281 162.292969 485.25 C 158.050781 480.269531 153.832031 475.203125 149.625 470.101562 C 145.675781 465.320312 141.707031 460.613281 137.726562 455.933594 C 132.75 450.074219 127.789062 444.15625 122.847656 438.179688 C 117.457031 431.667969 112.050781 425.230469 106.640625 418.792969 C 103.859375 415.484375 101.082031 412.171875 98.304688 408.859375 C 97.195312 407.539062 96.085938 406.214844 94.976562 404.890625 C 83.882812 391.667969 72.789062 378.445312 61.695312 365.222656 C 60.871094 364.242188 60.871094 364.242188 60.03125 363.238281 C 58.921875 361.917969 57.816406 360.597656 56.707031 359.277344 C 53.910156 355.941406 51.113281 352.609375 48.3125 349.28125 C 45.539062 345.984375 42.765625 342.671875 39.996094 339.355469 C 38.433594 337.492188 36.863281 335.652344 35.292969 333.808594 C 23.769531 320.191406 15.09375 304.4375 11.328125 277.15625 C 8.5625 254.605469 10.640625 232.804688 15.9375 212.628906 C 21.011719 195.335938 28.605469 185.652344 36.960938 176 C 37.585938 175.269531 38.210938 174.539062 38.835938 173.808594 C 39.792969 172.6875 40.753906 171.566406 41.714844 170.445312 C 44.910156 166.71875 48.089844 162.933594 51.265625 159.140625 C 52.363281 157.828125 53.464844 156.515625 54.5625 155.203125 C 55.105469 154.554688 55.648438 153.90625 56.207031 153.238281 C 58.976562 149.9375 61.742188 146.636719 64.511719 143.339844 C 65.621094 142.015625 66.730469 140.695312 67.839844 139.371094 C 114.433594 83.835938 114.433594 83.835938 116.097656 81.851562 C 117.203125 80.53125 118.3125 79.207031 119.421875 77.886719 C 122.207031 74.566406 124.992188 71.246094 127.78125 67.929688 C 133.132812 61.558594 138.476562 55.171875 143.808594 48.726562 C 150.054688 41.179688 156.335938 33.75 162.628906 26.363281 C 163.835938 24.941406 165.035156 23.507812 166.230469 22.054688 C 169.28125 18.363281 172.21875 14.925781 175.617188 12.761719 C 176.226562 12.359375 176.839844 11.957031 177.472656 11.542969 C 189.480469 4.851562 202.496094 10.546875 212.414062 25.785156 Z M 212.414062 25.785156 "/>
<path style=" stroke:none;fill-rule:nonzero;fill:rgb(5.882353%,61.56863%,34.117648%);fill-opacity:1;" d="M 356.585938 32.957031 C 360.070312 37.203125 363.585938 41.351562 367.105469 45.488281 C 372.082031 51.347656 377.042969 57.265625 381.984375 63.242188 C 387.375 69.753906 392.78125 76.191406 398.191406 82.628906 C 400.972656 85.9375 403.75 89.25 406.527344 92.5625 C 407.636719 93.882812 408.746094 95.207031 409.855469 96.527344 C 425.386719 115.042969 440.917969 133.554688 456.449219 152.066406 C 456.996094 152.722656 457.546875 153.375 458.113281 154.050781 C 459.21875 155.367188 460.320312 156.683594 461.425781 158 C 464.28125 161.40625 467.136719 164.804688 469.992188 168.195312 C 473.25 172.058594 476.5 175.9375 479.742188 179.835938 C 480.117188 180.28125 480.492188 180.730469 480.878906 181.195312 C 490.996094 193.382812 498.945312 209.949219 501.984375 233.785156 C 504.582031 255.738281 503.460938 277.472656 498.175781 297.257812 C 496.914062 301.332031 495.554688 305.140625 494.078125 308.890625 C 493.746094 309.785156 493.414062 310.675781 493.070312 311.59375 C 488.542969 322.875 481.859375 329.425781 475.800781 336.53125 C 473.585938 339.132812 471.378906 341.765625 469.175781 344.402344 C 467.503906 346.398438 465.835938 348.386719 464.164062 350.375 C 460.824219 354.351562 457.484375 358.332031 454.144531 362.3125 C 453.035156 363.636719 451.925781 364.957031 450.816406 366.28125 C 450.265625 366.933594 449.71875 367.589844 449.152344 368.265625 C 425.300781 396.695312 401.449219 425.125 377.601562 453.554688 C 377.050781 454.207031 376.5 454.863281 375.933594 455.539062 C 374.828125 456.859375 373.722656 458.175781 372.613281 459.496094 C 369.238281 463.519531 365.867188 467.542969 362.492188 471.570312 C 360.824219 473.554688 359.15625 475.539062 357.488281 477.523438 C 355.421875 479.988281 353.355469 482.464844 351.292969 484.953125 C 339.746094 498.851562 328.394531 507.234375 314.992188 500.34375 C 309.125 496.925781 303.527344 490.859375 299.007812 482.378906 C 298.632812 481.699219 298.257812 481.023438 297.871094 480.324219 C 290.363281 465.902344 286.25 445.914062 285.585938 424.949219 C 285.273438 401.992188 289.078125 379.980469 296.734375 363.140625 C 302.246094 351.59375 309.550781 344.300781 316.308594 336.359375 C 319.425781 332.699219 322.527344 328.996094 325.632812 325.289062 C 326.742188 323.964844 327.851562 322.644531 328.960938 321.324219 C 329.507812 320.667969 330.058594 320.011719 330.625 319.339844 C 348.929688 297.519531 348.929688 297.519531 350.59375 295.535156 C 351.699219 294.214844 352.808594 292.894531 353.914062 291.574219 C 356.714844 288.238281 359.511719 284.90625 362.3125 281.578125 C 369.398438 273.152344 376.460938 264.632812 383.488281 256 C 379.070312 250.308594 374.609375 244.839844 370.078125 239.539062 C 368.816406 238.050781 367.550781 236.5625 366.285156 235.074219 C 365.96875 234.699219 365.652344 234.328125 365.324219 233.941406 C 362.132812 230.191406 358.953125 226.40625 355.777344 222.613281 C 354.960938 221.636719 354.960938 221.636719 354.125 220.640625 C 353.027344 219.332031 351.929688 218.019531 350.832031 216.710938 C 348.0625 213.40625 345.296875 210.109375 342.527344 206.808594 C 341.417969 205.488281 340.308594 204.164062 339.199219 202.84375 C 338.375 201.859375 338.375 201.859375 337.535156 200.859375 C 335.871094 198.875 334.207031 196.890625 332.542969 194.910156 C 331.996094 194.253906 331.445312 193.597656 330.878906 192.921875 C 329.773438 191.609375 328.671875 190.292969 327.566406 188.976562 C 324.710938 185.570312 321.855469 182.171875 318.996094 178.78125 C 315.742188 174.917969 312.492188 171.039062 309.246094 167.140625 C 308.875 166.691406 308.5 166.242188 308.113281 165.78125 C 297.996094 153.59375 290.046875 137.027344 287.007812 113.191406 C 284.234375 89.769531 285.773438 67.121094 291.742188 46.515625 C 298.210938 27.121094 307.027344 14.875 318.230469 9.941406 C 333.171875 4.949219 344.199219 17.863281 356.585938 32.957031 Z M 356.585938 32.957031 "/>
<path style=" stroke:none;fill-rule:nonzero;fill:rgb(91.37255%,26.274511%,20.784314%);fill-opacity:1;" d="M 212.414062 25.785156 C 213.132812 27.035156 213.835938 28.316406 214.527344 29.621094 C 214.945312 30.390625 215.367188 31.15625 215.796875 31.949219 C 223.789062 47.433594 227.636719 68.445312 228 90.777344 C 227.761719 114.28125 223.140625 136.136719 214.9375 152.457031 C 211.464844 158.519531 207.523438 163.039062 203.589844 167.667969 C 201.554688 170.0625 199.527344 172.484375 197.503906 174.90625 C 196.363281 176.265625 195.222656 177.621094 194.082031 178.980469 C 190.328125 183.445312 186.585938 187.945312 182.847656 192.460938 C 178.101562 198.199219 173.332031 203.851562 168.554688 209.476562 C 163.890625 214.972656 159.242188 220.53125 154.601562 226.136719 C 150.191406 231.464844 145.773438 236.765625 141.339844 242.015625 C 139 244.78125 136.667969 247.554688 134.378906 250.492188 C 134.050781 250.90625 133.722656 251.324219 133.382812 251.75 C 132.5625 252.789062 131.75 253.851562 130.9375 254.914062 C 129.535156 256 129.535156 256 128.058594 255.425781 C 126.160156 253.589844 124.382812 251.507812 122.59375 249.257812 C 121.8125 248.292969 121.035156 247.332031 120.257812 246.371094 C 119.847656 245.867188 119.441406 245.363281 119.019531 244.847656 C 116.898438 242.25 114.753906 239.738281 112.609375 237.222656 C 108.679688 232.601562 104.765625 227.921875 100.863281 223.207031 C 96.601562 218.054688 92.328125 212.957031 88.035156 207.917969 C 85.632812 205.089844 83.238281 202.226562 80.855469 199.324219 C 68.324219 184.050781 56.125 169.578125 41.0625 177.066406 C 39.484375 177.9375 37.917969 178.886719 36.351562 179.835938 C 35.5 180.210938 34.648438 180.574219 33.792969 180.890625 C 35.484375 177.976562 37.164062 175.574219 39.097656 173.378906 C 39.882812 172.480469 39.882812 172.480469 40.683594 171.5625 C 41.242188 170.933594 41.796875 170.300781 42.367188 169.652344 C 46.09375 165.386719 49.8125 161.121094 53.472656 156.628906 C 57.039062 152.253906 60.628906 147.949219 64.222656 143.667969 C 64.789062 142.996094 65.359375 142.320312 65.941406 141.625 C 67.105469 140.242188 68.265625 138.855469 69.429688 137.472656 C 72.230469 134.144531 75.027344 130.808594 77.824219 127.472656 C 78.933594 126.148438 80.042969 124.828125 81.152344 123.503906 C 81.699219 122.847656 82.25 122.195312 82.816406 121.519531 C 114.433594 83.835938 114.433594 83.835938 116.097656 81.851562 C 117.203125 80.53125 118.3125 79.207031 119.421875 77.886719 C 122.207031 74.566406 124.992188 71.246094 127.78125 67.929688 C 133.132812 61.558594 138.476562 55.171875 143.808594 48.726562 C 150.054688 41.179688 156.335938 33.75 162.628906 26.363281 C 163.835938 24.941406 165.035156 23.507812 166.230469 22.054688 C 169.28125 18.363281 172.21875 14.925781 175.617188 12.761719 C 176.226562 12.359375 176.839844 11.957031 177.472656 11.542969 C 189.480469 4.851562 202.496094 10.546875 212.414062 25.785156 Z M 212.414062 25.785156 "/>
<path style=" stroke:none;fill-rule:nonzero;fill:rgb(98.039216%,73.333335%,1.568628%);fill-opacity:1;" d="M 386.046875 257.058594 C 387.226562 258.207031 387.226562 258.207031 388.441406 259.648438 C 388.902344 260.1875 389.359375 260.730469 389.835938 261.285156 C 390.328125 261.875 390.820312 262.464844 391.328125 263.074219 C 392.105469 263.996094 392.105469 263.996094 392.902344 264.9375 C 397.597656 270.503906 402.273438 276.148438 406.949219 281.800781 C 414.652344 291.113281 422.394531 300.300781 430.152344 309.414062 C 432.578125 312.273438 434.992188 315.171875 437.394531 318.113281 C 437.941406 318.777344 438.484375 319.445312 439.046875 320.128906 C 440.097656 321.414062 441.144531 322.703125 442.191406 324 C 451.308594 335.128906 461.882812 340.402344 472.355469 334.929688 C 473.804688 334.078125 475.238281 333.117188 476.671875 332.164062 C 477.523438 331.785156 478.375 331.421875 479.230469 331.109375 C 477.949219 334.089844 476.519531 335.824219 474.84375 337.773438 C 474.261719 338.449219 473.683594 339.125 473.089844 339.824219 C 472.78125 340.179688 472.472656 340.539062 472.15625 340.90625 C 470.519531 342.804688 468.890625 344.71875 467.257812 346.632812 C 466.925781 347.019531 466.59375 347.40625 466.253906 347.804688 C 463.226562 351.351562 460.21875 354.972656 457.214844 358.613281 C 452.796875 363.960938 448.355469 369.238281 443.902344 374.480469 C 438.925781 380.339844 433.964844 386.257812 429.023438 392.234375 C 423.632812 398.742188 418.226562 405.183594 412.816406 411.621094 C 410.035156 414.929688 407.257812 418.242188 404.480469 421.554688 C 403.371094 422.875 402.261719 424.199219 401.152344 425.519531 C 400.601562 426.175781 400.054688 426.828125 399.488281 427.503906 C 388.949219 440.066406 378.410156 452.628906 367.871094 465.191406 C 367.320312 465.84375 366.773438 466.5 366.207031 467.175781 C 365.101562 468.492188 364 469.804688 362.898438 471.117188 C 360.324219 474.179688 357.757812 477.246094 355.195312 480.335938 C 354.296875 481.421875 353.394531 482.507812 352.496094 483.589844 C 351.371094 484.941406 350.25 486.296875 349.128906 487.660156 C 344.957031 492.667969 340.679688 497.648438 335.96875 500.097656 C 335.53125 500.332031 335.09375 500.566406 334.644531 500.808594 C 323.71875 505.820312 313.136719 501.617188 303.617188 489.785156 C 301.957031 487.542969 300.472656 485.132812 299.007812 482.378906 C 298.632812 481.699219 298.257812 481.023438 297.871094 480.324219 C 290.363281 465.902344 286.25 445.914062 285.585938 424.949219 C 285.273438 401.992188 289.078125 379.980469 296.734375 363.140625 C 302.246094 351.59375 309.550781 344.300781 316.308594 336.359375 C 319.425781 332.699219 322.527344 328.996094 325.632812 325.289062 C 326.742188 323.964844 327.851562 322.644531 328.960938 321.324219 C 329.507812 320.667969 330.058594 320.011719 330.625 319.339844 C 348.929688 297.519531 348.929688 297.519531 350.59375 295.535156 C 351.699219 294.214844 352.808594 292.894531 353.914062 291.574219 C 356.714844 288.238281 359.511719 284.90625 362.3125 281.578125 C 362.871094 280.910156 363.433594 280.246094 364.011719 279.558594 C 365.125 278.234375 366.238281 276.910156 367.351562 275.589844 C 370.082031 272.347656 372.789062 269.058594 375.472656 265.660156 C 376.246094 264.691406 376.246094 264.691406 377.035156 263.699219 C 378.003906 262.476562 378.972656 261.242188 379.933594 259.988281 C 380.367188 259.449219 380.796875 258.90625 381.242188 258.347656 C 381.800781 257.625 381.800781 257.625 382.375 256.890625 C 383.832031 255.726562 384.570312 256.097656 386.046875 257.058594 Z M 386.046875 257.058594 "/>
</g>
</svg>
